# xmcd
#
# Track frame offsets: 
#        150
#        23996
#        45376
#        74292
#        99384
#        125073
#        159431
#        185560
#        206595
#        232441
#
# Disc length: 3469 seconds
#
# Revision: 0
# Processed by: cddbd v1.5.2PL0 Copyright (c) Steve Scherf et al.
# Submitted via: ExactAudioCopyFreeDBPlugin 1.0
#
DISCID=8d0d8b0a
DTITLE=145th Street - Where the Blues Lives
DYEAR=2012
DGENRE=Blues
TTITLE0=Where the Blues Lives
TTITLE1=Tell Me, Baby
TTITLE2=Before Its Time
TTITLE3=Your Little Show
TTITLE4=Blues Never Sleeps
TTITLE5=What Am I S'posed to Do
TTITLE6=Make Love to You
TTITLE7=Seven Days
TTITLE8=Good Mornin' Blues
TTITLE9=Give Her What She Wants
EXTD=
EXTT0=
EXTT1=
EXTT2=
EXTT3=
EXTT4=
EXTT5=
EXTT6=
EXTT7=
EXTT8=
EXTT9=
PLAYORDER=
